<svg xmlns="http://www.w3.org/2000/svg" version="1.1" width="350" height="343">

<path d="M0 0 C0.81095582 -0.00367669 1.62191163 -0.00735338 2.45744187 -0.01114148 C5.17858928 -0.02216637 7.89969848 -0.0260202 10.62086487 -0.02983093 C12.57078167 -0.03609668 14.52069727 -0.04274358 16.47061157 -0.04974365 C22.87949289 -0.07078004 29.28837443 -0.08114831 35.69728088 -0.09111023 C37.90598628 -0.09515849 40.11469154 -0.09927543 42.32339668 -0.10346031 C52.70472465 -0.12251411 63.08604552 -0.13674257 73.46738762 -0.14507228 C85.4350784 -0.15483408 97.4025837 -0.18112527 109.37020916 -0.22157317 C118.62901666 -0.25178715 127.88777118 -0.26654632 137.14662701 -0.26985329 C142.67192602 -0.2721985 148.19702693 -0.28108949 153.72227287 -0.30631447 C158.927002 -0.32969143 164.13140397 -0.33378981 169.3361721 -0.32355309 C171.23838137 -0.32305989 173.14060725 -0.32931604 175.04276657 -0.34310913 C193.43378668 -0.46891998 207.99934532 2.98048913 221.91212463 15.88545227 C231.08799552 25.76059956 236.12311015 37.99385623 236.15412903 51.38056946 C236.15858571 52.45740226 236.15858571 52.45740226 236.16313243 53.55598927 C236.17178834 55.95618675 236.17332507 58.35633418 236.17481995 60.75654602 C236.17945048 62.48001206 236.18447546 64.20347708 236.18986511 65.92694092 C236.20297225 70.60712013 236.2094313 75.28728501 236.21387577 79.96747971 C236.21681047 82.8955123 236.22091613 85.82354102 236.22537994 88.75157166 C236.2390532 97.92406731 236.24871953 107.09655404 236.25258183 116.26905918 C236.25705606 126.83533015 236.27457513 137.40147134 236.30358243 147.96770287 C236.32525479 156.1479843 236.33528915 164.32822938 236.33662295 172.5085392 C236.33766742 177.38768635 236.34349802 182.26671148 236.36144257 187.14582825 C236.37801851 191.74234405 236.38003291 196.33864738 236.37130356 200.93518257 C236.37053813 202.61324193 236.37480986 204.29131316 236.38476181 205.96934319 C236.48547276 224.02381101 233.49324956 241.46647375 220.44337463 255.04951477 C207.73798948 266.01863346 193.6409927 271.24104433 176.79469299 271.16792297 C175.44993141 271.16342888 175.44993141 271.16342888 174.07800293 271.15884399 C173.39677872 271.15499191 172.7155545 271.15113983 172.01368713 271.14717102 C172.02416077 272.43929504 172.0346344 273.73141907 172.04542542 275.06269836 C172.08155432 279.84473412 172.10456164 284.62675775 172.12355042 289.40888977 C172.13362425 291.48085049 172.14728379 293.55279695 172.16456604 295.62471008 C172.18875377 298.59837866 172.20015622 301.57185972 172.20899963 304.54560852 C172.2193222 305.47585846 172.22964478 306.4061084 172.24028015 307.36454773 C172.24043121 308.225289 172.24058228 309.08603027 172.24073792 309.97285461 C172.24517914 310.73230377 172.24962036 311.49175293 172.25419617 312.2742157 C172.01368713 314.14717102 172.01368713 314.14717102 170.01368713 316.14717102 C165.19231025 317.0704134 162.65982135 316.1835094 158.59571838 313.51435852 C157.14008484 312.56073425 157.14008484 312.56073425 155.65504456 311.58784485 C154.44022419 310.77583254 153.22655692 309.96209396 152.01368713 309.14717102 C150.89868332 308.39903641 150.89868332 308.39903641 149.76115417 307.63578796 C142.41321822 302.69783286 135.08600222 297.72927116 127.76173401 292.75630188 C124.94369521 290.84382049 122.12334629 288.93478351 119.30274963 287.02607727 C118.04429733 286.16944237 118.04429733 286.16944237 116.76042175 285.29550171 C115.07925273 284.15881655 113.38630683 283.03937834 111.682724 281.93656921 C109.01368713 280.14717102 109.01368713 280.14717102 106.25993347 277.96934509 C95.97873284 270.4430319 86.1370192 271.09265136 73.83399963 271.28779602 C71.69133113 271.29044056 69.54865399 271.28896056 67.4059906 271.28358459 C61.79224792 271.27783659 56.17977856 271.31606196 50.56629944 271.3674469 C41.59242798 271.44526797 32.61865396 271.4688925 23.64448166 271.46735382 C20.53629291 271.47510331 17.4292831 271.50981883 14.32133484 271.54762268 C-5.5216141 271.67713042 -21.68353035 268.01454656 -36.47850037 253.83076477 C-49.22247315 240.19352286 -51.7543638 223.87467193 -51.60154724 205.98188782 C-51.60505844 204.22399359 -51.6107282 202.46610259 -51.61836243 200.70822144 C-51.63247133 195.98522423 -51.61569012 191.26281896 -51.59207726 186.53987861 C-51.57180115 181.57229445 -51.57785618 176.60473088 -51.58018494 171.63711548 C-51.58013157 163.304676 -51.56049185 154.97246483 -51.52830505 146.64009094 C-51.4913607 137.02984333 -51.48264006 127.41989369 -51.48960257 117.80958432 C-51.49592215 108.52653749 -51.48513023 99.24359193 -51.46563721 89.96056557 C-51.45749883 86.0258368 -51.45474702 82.09116004 -51.45632935 78.15642357 C-51.4572127 73.52113808 -51.44287161 68.88613275 -51.41710281 64.25092125 C-51.40998448 62.55751912 -51.40783631 60.86408708 -51.41122055 59.17067337 C-51.43654914 43.50076345 -49.25503909 28.54943267 -38.04295349 16.64546204 C-30.16349809 8.74316374 -22.56441052 4.49799698 -11.98631287 1.14717102 C-11.4391458 0.96877088 -10.89197874 0.79037073 -10.32823086 0.60656452 C-6.89711828 -0.06648672 -3.48255824 -0.0008474 0 0 Z " fill="#0EBCFE" transform="translate(81.98631286621094,14.852828979492188)"/>
<path d="M0 0 C7.0277261 5.25859366 11.81294926 12.24018345 14.25 20.68359375 C15.90606698 33.56895702 12.42032894 42.35686576 4.73828125 52.45703125 C2.48262745 55.83163142 2.13346187 59.01435629 1.93359375 63.01171875 C1.89169922 63.8109375 1.84980469 64.61015625 1.80664062 65.43359375 C1.76732422 66.25859375 1.72800781 67.08359375 1.6875 67.93359375 C1.62272461 69.19429687 1.62272461 69.19429687 1.55664062 70.48046875 C1.45091457 72.54800046 1.34998705 74.61577656 1.25 76.68359375 C-2.4503815 75.43873343 -5.16532711 73.66896415 -8.25292969 71.30712891 C-16.10661845 65.4862935 -22.05827837 65.04201888 -31.61328125 65.54296875 C-41.49004305 66.0495833 -51.23947535 61.10446664 -58.82421875 55.01953125 C-66.74161142 47.49714949 -70.72698632 39.33572861 -71.125 28.37109375 C-70.92550745 18.12656442 -66.98538794 9.91898169 -59.75 2.68359375 C-41.79347325 -11.64764053 -19.16982701 -12.31907153 0 0 Z " fill="#FDFDFC" transform="translate(233.75,68.31640625)"/>
<path d="M0 0 C1.38034424 0.00845947 1.38034424 0.00845947 2.78857422 0.01708984 C16.60061167 0.26195833 28.7774613 3.48860905 39.125 13.0625 C47.08889527 21.91589774 48.53818748 30.0325498 48.3125 41.75 C48.32345703 43.01521484 48.33441406 44.28042969 48.34570312 45.58398438 C48.2724865 54.73606301 48.2724865 54.73606301 46.25466919 56.9622345 C42.63268513 58.91484371 39.15369129 58.71423495 35.1418457 58.66894531 C33.84127731 58.67201187 33.84127731 58.67201187 32.51443481 58.67514038 C29.65133513 58.67814629 26.78881238 58.65968041 23.92578125 58.640625 C21.93849327 58.6375676 19.95120315 58.63569133 17.96391296 58.63494873 C13.80194889 58.63034723 9.64017848 58.61592434 5.47827148 58.59375 C0.13127284 58.56541262 -5.21557359 58.5545328 -10.56264019 58.5500679 C-14.66400183 58.5459213 -18.7653324 58.5361111 -22.86667824 58.52419281 C-24.83914757 58.51847869 -26.81161991 58.51372379 -28.78409386 58.50992584 C-31.53279308 58.50308755 -34.28136908 58.48946829 -37.0300293 58.47363281 C-37.85236557 58.47251495 -38.67470184 58.47139709 -39.5219574 58.47024536 C-45.13531044 58.42718956 -45.13531044 58.42718956 -46.25 57.3125 C-46.54264356 53.20252496 -46.56431413 49.08845228 -46.60009766 44.96899414 C-46.61650966 43.58893802 -46.64360043 42.20896152 -46.68212891 40.8293457 C-46.97926208 30.12609209 -45.5573208 23.20141516 -39.25 14.578125 C-28.44609309 3.68981257 -14.96530856 -0.09644371 0 0 Z " fill="#FEFDFC" transform="translate(116.25,210.6875)"/>
<path d="M0 0 C0.92208252 0.00491455 1.84416504 0.0098291 2.79418945 0.01489258 C15.1268853 0.22638459 27.76213968 3.20546452 37.2421875 11.65625 C45.58590975 21.21770469 46.90845002 29.03259581 47 41.3125 C47.04350586 43.25769531 47.04350586 43.25769531 47.08789062 45.2421875 C47.09626953 46.48226562 47.10464844 47.72234375 47.11328125 49 C47.12786377 50.13824219 47.14244629 51.27648437 47.1574707 52.44921875 C46.6875 55.3125 46.6875 55.3125 45.19039917 56.96917725 C41.591846 58.90054484 38.15358515 58.71442401 34.17114258 58.66894531 C33.31385056 58.67098969 32.45655853 58.67303406 31.57328796 58.67514038 C28.74265138 58.67814608 25.91259848 58.65968113 23.08203125 58.640625 C21.11716354 58.63756756 19.15229366 58.63569133 17.18742371 58.63494873 C13.07253712 58.63034738 8.95784643 58.615925 4.84301758 58.59375 C-0.44344723 58.565412 -5.72975807 58.5545328 -11.01629162 58.5500679 C-15.07133029 58.54592128 -19.12633755 58.53611108 -23.18136024 58.52419281 C-25.13150085 58.51847878 -27.0816445 58.51372385 -29.03178978 58.50992584 C-31.7493566 58.50308744 -34.4667988 58.48946815 -37.18432617 58.47363281 C-37.99731171 58.47251495 -38.81029724 58.47139709 -39.6479187 58.47024536 C-45.19781031 58.42718969 -45.19781031 58.42718969 -46.3125 57.3125 C-46.58054225 53.02345423 -46.58391281 48.72830589 -46.60766602 44.43188477 C-46.62474025 42.28269592 -46.66858345 40.13510236 -46.71289062 37.98632812 C-46.825491 28.05342356 -45.64246603 21.3967584 -38.84765625 13.75 C-28.03474917 3.62493689 -14.45886995 -0.09145311 0 0 Z " fill="#FDFDFC" transform="translate(231.3125,210.6875)"/>
<path d="M0 0 C-1.39210264 2.96404628 -3.03357647 5.52782057 -4.9375 8.1875 C-10.84320877 17.08216162 -12.04664167 25.35517843 -11 36 C-9.24442245 44.09864643 -5.27204816 49.76703666 0 56 C0.99 57.485 0.99 57.485 2 59 C-0.13962808 60.13829431 -2.28558999 61.26034158 -4.4375 62.375 C-5.02982422 62.69210938 -5.62214844 63.00921875 -6.23242188 63.3359375 C-13.47222521 67.05262798 -20.10337453 68.25150952 -28.19384766 67.71875 C-38.3675421 67.08127551 -44.42038766 68.78579192 -52.4453125 75.03125 C-55 77 -55 77 -57 77 C-58.0195624 73.84497619 -58.03414286 70.91337334 -58.03662109 67.61938477 C-58.14612133 58.91618197 -60.09586466 54.11167031 -65.0546875 46.88671875 C-69.81618826 39.82095758 -71.04769722 32.41729471 -70 24 C-67.31383372 13.33528031 -60.69012373 5.45980309 -51.625 -0.49609375 C-35.64418808 -9.65176725 -15.70991266 -10.02332636 0 0 Z " fill="#FDFDFC" transform="translate(171,68)"/>
<path d="M0 0 C6.42335228 4.30615795 10.65080903 9.59517686 13 17 C14.22440771 24.58482649 12.81797952 31.36102077 9 38 C4.66039747 44.00868042 -0.865626 47.1950461 -8 49 C-16.74626691 50.30120842 -23.03135329 47.59488439 -30.25 42.875 C-36.16159671 36.69469435 -38.31505897 30.94157923 -38.5625 22.375 C-38.22578405 13.79306021 -36.43692039 9.06994596 -30.25 3.1875 C-21.4676175 -3.9097021 -10.10481045 -5.69285096 0 0 Z " fill="#FDFDFC" transform="translate(130,156)"/>
<path d="M0 0 C5.75260832 4.9942607 9.52101606 10.59227141 10.34765625 18.19921875 C10.7283592 27.2287119 9.36537302 33.89803798 3.42578125 40.83984375 C-2.02299649 46.03459922 -8.52037081 48.05822741 -15.9375 48.5 C-23.61975647 48.21370473 -29.73951036 44.72401417 -34.9375 39.1875 C-39.93654817 32.86794855 -41.68115119 26.86389253 -41.40234375 18.80078125 C-40.20472944 10.46399037 -35.57127226 4.76494424 -29.18359375 -0.4375 C-20.66162287 -6.53551136 -8.68216709 -5.28029583 0 0 Z " fill="#FDFDFC" transform="translate(247,157)"/>
<path d="M0 0 C3 0 3 0 4.76953125 1.7265625 C5.50558594 2.47679687 6.24164063 3.22703125 7 4 C9.21060734 5.51411462 11.41490897 6.96245686 13.6875 8.375 C14.95346981 9.17523602 16.21909566 9.97601646 17.484375 10.77734375 C18.09345703 11.16132324 18.70253906 11.54530273 19.33007812 11.94091797 C21.38549033 13.24448203 23.41535389 14.58297083 25.4375 15.9375 C26.12457031 16.39769531 26.81164062 16.85789062 27.51953125 17.33203125 C28.92140881 18.27471112 30.32309129 19.21768173 31.72412109 20.16162109 C33.68966619 21.48486399 35.65730554 22.80495592 37.625 24.125 C38.24689209 24.54515381 38.86878418 24.96530762 39.50952148 25.39819336 C43.57825708 28.12524384 47.7221064 30.6136172 52 33 C52 33.66 52 34.32 52 35 C53.2065625 35.433125 53.2065625 35.433125 54.4375 35.875 C57 37 57 37 58 39 C54.55446418 37.71955863 51.59776281 36.23494759 48.53613281 34.20605469 C47.68464661 33.64497009 46.8331604 33.0838855 45.95587158 32.50579834 C45.04746521 31.90060364 44.13905884 31.29540894 43.203125 30.671875 C42.25491882 30.04524963 41.30671265 29.41862427 40.32977295 28.77301025 C37.30036018 26.76956541 34.27515356 24.75986889 31.25 22.75 C29.22943863 21.41234952 27.2086081 20.07510551 25.1875 18.73828125 C15.84705941 12.55687338 15.84705941 12.55687338 11.47814941 9.64050293 C9.78010195 8.51641742 8.07240747 7.40680858 6.35681152 6.30969238 C5.53104614 5.77726929 4.70528076 5.24484619 3.85449219 4.69628906 C3.11237488 4.22451233 2.37025757 3.7527356 1.60565186 3.2666626 C1.07578674 2.84866394 0.54592163 2.43066528 0 2 C0 1.34 0 0.68 0 0 Z " fill="#07B1FE" transform="translate(180,286)"/>
<path d="M0 0 C0 3 0 3 -1.46801758 6.20727539 C-3.18334818 10.05528478 -3.42680344 13.45481124 -3.51171875 17.68359375 C-3.53864555 18.73414696 -3.53864555 18.73414696 -3.56611633 19.80592346 C-3.61977555 22.01638989 -3.65396932 24.22664612 -3.6875 26.4375 C-3.72071257 27.94729461 -3.75520581 29.45706163 -3.79101562 30.96679688 C-3.87547395 34.64432933 -3.9424955 38.32193591 -4 42 C-4.33 42 -4.66 42 -5 42 C-7.00065854 8.16743497 -7.00065854 8.16743497 0 0 Z " fill="#03B1FE" transform="translate(189,227)"/>
<path d="M0 0 C-0.87011719 0.41958984 -0.87011719 0.41958984 -1.7578125 0.84765625 C-7.43203296 3.75967368 -11.22466839 6.86258797 -15 12 C-15.33 11.34 -15.66 10.68 -16 10 C-14.30960021 4.92880064 -9.88926192 1.98756873 -5.25 -0.4375 C-3 -1 -3 -1 0 0 Z " fill="#06B0FE" transform="translate(110,154)"/>
</svg>